<?xml version="1.0" standalone="no"?><!DOCTYPE svg PUBLIC "-//W3C//DTD SVG 1.1//EN" "http://www.w3.org/Graphics/SVG/1.1/DTD/svg11.dtd"><svg t="1483178860428" class="icon" style="" viewBox="0 0 1024 1024" version="1.1" xmlns="http://www.w3.org/2000/svg" p-id="3750" xmlns:xlink="http://www.w3.org/1999/xlink" width="32" height="32"><defs><style type="text/css"></style></defs><path d="M463.017 574.836c-11.313 0-20.486 9.324-20.486 20.818 0 11.497 9.174 20.816 20.486 20.816 11.328 0 20.505-9.319 20.505-20.816-0.001-11.495-9.179-20.818-20.505-20.818z" p-id="3751" fill="#858585"></path><path d="M444.188 472.076c-112.091 15.753-194.525 88.511-184.127 162.511 10.399 73.998 109.701 121.213 221.785 105.46 112.103-15.755 194.54-88.513 184.135-162.509-10.401-74.001-109.691-121.218-221.794-105.462zM461.147 719.892c-66.662 12.955-129.6-22.282-140.571-78.705-10.969-56.427 34.187-112.673 100.857-125.631 66.674-12.961 129.607 22.274 140.576 78.698 10.972 56.428-34.191 112.674-100.862 125.638z" p-id="3752" fill="#858585"></path><path d="M510.836 0.393c-282.525 0-511.556 229.034-511.556 511.556 0 282.525 229.031 511.556 511.556 511.556 282.523 0 511.556-229.031 511.556-511.556 0-282.524-229.034-511.556-511.556-511.556zM473.269 803.813c-175.447 0-317.68-93.201-317.68-208.161 0-114.962 213.013-296.482 294.502-296.482 34.18 0 101.222 25.873 54.307 107.828-3.27 5.733 105.81-47.647 165.44-12.54 59.63 35.111 0 91.535 0 97.804 0 6.27 119.755 6.27 119.755 103.39-0.001 114.96-140.873 208.161-316.324 208.161zM722.923 378.162c-19.759-23.822-60.378-18.294-60.378-18.294-8.489 0.249-15.065-5.918-15.065-14.138v-5.809c0-8.182 6.588-15.879 14.704-17.119 0 0 48.395-12.35 85.428 21.504 37.028 33.857 21.159 95.619 21.159 95.619-1.33 8.278-9.296 14.719-17.516 14.719h-13.466c-8.111 0-12.953-6.324-10.58-14.128-0.001 0.001 15.465-38.527-4.289-62.354zM862.701 458.869c-1.332 12.276-12.778 22.108-25.154 22.108h-9.502c-12.453 0-20.894-9.862-19.026-22.028 0 0 17.601-74.518-23.136-133.906-40.74-59.387-136.385-49.235-136.385-49.235-12.613 0.217-22.507-9.196-22.507-21.519v-11.015c0-12.362 9.935-22.51 22.191-22.757 0 0 99.668-9.115 167.561 56.085 67.893 65.199 45.956 182.268 45.956 182.268z" p-id="3753" fill="#858585"></path><path d="M389.574 607.357c-20.517 9.568-31.242 29.99-23.955 45.622 7.285 15.629 29.828 20.535 50.347 10.973 20.525-9.568 31.238-29.99 23.961-45.622-7.292-15.629-29.833-20.543-50.352-10.973z" p-id="3754" fill="#858585"></path></svg>